<?xml version="1.0" encoding="utf-8"?>
<!-- Generator: Adobe Illustrator 18.1.1, SVG Export Plug-In . SVG Version: 6.00 Build 0)  -->
<svg version="1.1" id="Layer_1" xmlns="http://www.w3.org/2000/svg" xmlns:xlink="http://www.w3.org/1999/xlink" x="0px" y="0px"
	 viewBox="0 0 100 100" enable-background="new 0 0 100 100" xml:space="preserve">
<g>
	<path fill="#1C1B1A" d="M41.3,84c-0.5,0.7-1.2,1.1-2,1.4s-1.6,0.5-2.6,0.5c-0.5,0-1.1-0.1-1.7-0.2c-0.7-0.1-1.2-0.4-1.6-0.8
		c-0.4-0.3-1-0.9-1.3-1.4c-0.3-0.7-0.5-1.4-0.5-2.3c0-0.9,0.2-1.6,0.5-2.4c0.3-0.7,0.9-1.3,1.5-1.7c0.7-0.4,1.4-0.9,2.3-1.1
		c0.9-0.2,1.7-0.3,2.8-0.3c0.5,0,1.1,0,1.6,0s0.9,0,1.1,0.1v-0.3c0-0.4-0.1-0.8-0.2-1c-0.2-0.2-0.4-0.5-0.7-0.7
		c-0.2-0.1-0.5-0.3-1-0.4c-0.3-0.1-0.8-0.1-1.1-0.1c-1.1,0-2,0.1-2.6,0.4c-0.7,0.2-1.3,0.5-1.7,0.9l-2-2.8c0.3-0.2,0.7-0.4,1.1-0.8
		c0.4-0.2,0.9-0.4,1.5-0.7c0.5-0.2,1.2-0.3,2-0.4c0.7-0.1,1.5-0.2,2.4-0.2c2.3,0,4,0.7,5.1,1.9c1.1,1.3,1.6,2.9,1.6,5v8.9h-4.4
		L41.3,84z M41.3,78.6c-0.1,0-0.3,0-0.7-0.1s-0.7,0-1.1,0c-1.3,0-2.2,0.2-2.7,0.5c-0.5,0.4-0.8,0.9-0.8,1.6c0,1.3,0.8,1.9,2.3,1.9
		c0.3,0,0.8-0.1,1.1-0.2s0.7-0.3,1-0.5c0.2-0.2,0.5-0.5,0.7-0.9c0.2-0.3,0.2-0.8,0.2-1.2V78.6L41.3,78.6L41.3,78.6z"/>
	<path fill="#1C1B1A" d="M48.3,63.6H53v7.6c0.4-0.4,1-0.9,1.7-1.1c0.8-0.2,1.5-0.4,2.3-0.4c1.1,0,2.1,0.2,2.9,0.7
		c0.9,0.4,1.5,1,2.2,1.6c0.5,0.8,1,1.5,1.3,2.4c0.3,1,0.4,2,0.4,2.9c0,1.2-0.2,2.4-0.7,3.5c-0.4,1.1-1,2-1.7,2.7
		c-0.8,0.8-1.7,1.3-2.8,1.7s-2.4,0.7-3.8,0.7c-1.3,0-2.5-0.1-3.7-0.3c-1.2-0.2-2.2-0.5-2.9-0.8L48.3,63.6L48.3,63.6z M53,81.7
		c0.2,0.1,0.5,0.2,0.9,0.2c0.3,0.1,0.8,0.1,1.3,0.1c1.2,0,2.2-0.4,2.9-1.2c0.7-0.8,1-1.9,1-3.2c0-0.4-0.1-1-0.2-1.4
		c-0.1-0.4-0.3-0.9-0.5-1.2c-0.2-0.3-0.5-0.7-1-0.9c-0.5-0.2-0.9-0.3-1.4-0.3c-1.1,0-1.9,0.3-2.3,0.9c-0.4,0.5-0.8,1.3-0.8,2.3
		L53,81.7C52.9,81.7,53,81.7,53,81.7z"/>
	<path fill="#1C1B1A" d="M68.5,87.5c0.7,0.3,1.3,0.7,2,0.9s1.4,0.3,2.3,0.3c1.1,0,2-0.3,2.5-0.9c0.7-0.5,0.9-1.4,0.9-2.5v-1.1
		c-1,0.9-2.3,1.3-3.9,1.3c-1.1,0-2.1-0.2-2.9-0.5c-0.9-0.3-1.6-0.9-2.2-1.5c-0.5-0.7-1.1-1.4-1.3-2.3c-0.3-0.9-0.4-1.9-0.4-2.9
		c0-1.2,0.2-2.4,0.7-3.4c0.4-1,1-1.9,1.9-2.6c0.8-0.8,1.7-1.3,2.7-1.6c1.1-0.4,2.3-0.5,3.6-0.5c1.3,0,2.5,0.1,3.6,0.3
		c1.1,0.2,2.2,0.5,3.1,0.9v14.1c0,2.5-0.7,4.4-2.1,5.6S75.7,93,73.3,93c-1.4,0-2.6-0.1-3.6-0.4c-1-0.2-2-0.7-2.8-1.2L68.5,87.5z
		 M76.2,74.1c-0.3-0.1-0.7-0.2-0.9-0.2c-0.3,0-0.8-0.1-1.2-0.1c-0.7,0-1.3,0.1-1.7,0.3c-0.4,0.2-0.9,0.5-1.3,0.9
		c-0.3,0.3-0.5,0.9-0.8,1.3c-0.2,0.5-0.2,1.1-0.2,1.6c0,1.1,0.2,2,0.8,2.6c0.5,0.7,1.3,1,2.3,1s1.7-0.2,2.2-0.7
		c0.5-0.4,0.8-1.2,0.8-2.2L76.2,74.1L76.2,74.1L76.2,74.1z"/>
	<path fill="#1C1B1A" d="M83.4,63.6h4.7v7.6c0.4-0.4,1-0.9,1.7-1.1c0.8-0.2,1.5-0.4,2.3-0.4c1.1,0,2.1,0.2,2.9,0.7
		c0.9,0.4,1.5,1,2.2,1.6c0.5,0.8,1,1.5,1.3,2.4c0.3,1,0.4,2,0.4,2.9c0,1.2-0.2,2.4-0.7,3.5c-0.4,1.1-1,2-1.7,2.7
		c-0.8,0.8-1.7,1.3-2.8,1.7c-1.1,0.4-2.4,0.7-3.8,0.7c-1.3,0-2.5-0.1-3.7-0.3c-1.2-0.2-2.2-0.5-2.9-0.8L83.4,63.6L83.4,63.6z
		 M88.1,81.7c0.2,0.1,0.5,0.2,0.9,0.2c0.3,0.1,0.8,0.1,1.3,0.1c1.2,0,2.2-0.4,2.9-1.2c0.7-0.8,1-1.9,1-3.2c0-0.4-0.1-1-0.2-1.4
		s-0.3-0.9-0.5-1.2c-0.2-0.3-0.5-0.7-1-0.9c-0.4-0.2-0.9-0.3-1.4-0.3c-1.1,0-1.9,0.3-2.3,0.9C88.4,75.2,88,76,88,77L88.1,81.7
		C88,81.7,88.1,81.7,88.1,81.7z"/>
</g>
<path fill="none" d="M3.9,52c1.5,0.7,5.6,1.6,11.7,1.6c0.4,0,0.9,0,1.3,0c0.1,0,0.3,0,0.4,0c0.3,0,0.6,0,0.8,0c0.2,0,0.3,0,0.4,0
	c0.2,0,0.5,0,0.7,0s0.3,0,0.4,0c0.2,0,0.4,0,0.7,0c0.1,0,0.3,0,0.4,0c0.2,0,0.4,0,0.6-0.1c0.1,0,0.3,0,0.4,0c0.2,0,0.4,0,0.6-0.1
	c0.1,0,0.2,0,0.3,0c0.3,0,0.6-0.1,0.8-0.1h0.1c0.2,0,0.5-0.1,0.7-0.1c0.1,0,0.2,0,0.3,0c0.1,0,0.3-0.1,0.4-0.1s0.2,0,0.3-0.1
	c0.1,0,0.2-0.1,0.4-0.1c0.1,0,0.2,0,0.2-0.1c0.1,0,0.2-0.1,0.3-0.1c0.1,0,0.1,0,0.2-0.1c0.1,0,0.2-0.1,0.3-0.1c0.1,0,0.1,0,0.2-0.1
	c0.1,0,0.2-0.1,0.2-0.1h0.1c0.1,0,0.2-0.1,0.3-0.1c-1.2-0.6-5.3-1.5-11.8-1.5C9.3,50.6,5.3,51.4,3.9,52z"/>
<path fill="none" d="M3.6,51.9c-0.1-0.1-0.1-0.1-0.2-0.2l0,0C3.5,51.8,3.5,51.8,3.6,51.9z"/>
<path fill="none" d="M16.9,53.5c0.1,0,0.3,0,0.4,0c0.3,0,0.6,0,0.8,0c0.2,0,0.3,0,0.4,0c0.2,0,0.5,0,0.7,0s0.3,0,0.4,0
	c0.2,0,0.4,0,0.7,0c0.1,0,0.3,0,0.4,0c0.2,0,0.4,0,0.6-0.1c0.1,0,0.3,0,0.4,0c0.2,0,0.4,0,0.6-0.1c0.1,0,0.2,0,0.3,0
	c0.3,0,0.6-0.1,0.8-0.1h0.1c0.2,0,0.5-0.1,0.7-0.1c0.1,0,0.2,0,0.3,0c0.1,0,0.3-0.1,0.4-0.1s0.2,0,0.3-0.1c0.1,0,0.2-0.1,0.4-0.1
	c0.1,0,0.2,0,0.2-0.1c0.1,0,0.2-0.1,0.3-0.1c0.1,0,0.1,0,0.2-0.1c0.1,0,0.2-0.1,0.3-0.1c0.1,0,0.1,0,0.2-0.1c0.1,0,0.2-0.1,0.2-0.1
	h0.1c0.1,0,0.2-0.1,0.3-0.1c-1.2-0.6-5.3-1.5-11.8-1.5c-6.3,0-10.3,0.8-11.7,1.4c1.5,0.7,5.6,1.6,11.7,1.6
	C16.1,53.6,16.5,53.5,16.9,53.5z"/>
<path fill="none" d="M5.1,62.4l4.7,29.9c3.5-2.4,7.7-1.7,10.7-0.6c0.5,0.2,0.7,0.7,0.6,1.2c-0.2,0.5-0.7,0.7-1.2,0.6
	c-2.6-0.9-6.2-1.5-9.1,0.5c1.2,0.6,3.1,1.4,5.5,1.4c2.1,0,4.1-0.6,6-1.9l4.1-30.9c-2.6,0.8-7.3,1-10.5,1C13.8,63.4,8,63.3,5.1,62.4z
	"/>
<path fill="none" d="M15.6,55.5L15.6,55.5c-1.8,0-8.3-0.1-11.8-1.3l0.9,5.4L4.8,60c2.1-0.3,5.8-0.6,9.8-0.6c5.1,0,9.7,0.5,11.2,0.9
	c-1.5,0.4-6.1,0.9-11.2,0.9c-4,0-7.6-0.3-9.8-0.6v0.3V61c1.7,0.4,6.1,0.8,11,0.8c4.6,0,8.9-0.4,10.7-0.8v-0.2l0.2-1.3l0.7-5.4
	c-3.2,1.2-8.9,1.3-11.5,1.3C15.8,55.5,15.7,55.5,15.6,55.5z"/>
<circle fill="none" cx="19.1" cy="75.3" r="2.9"/>
<circle fill="none" cx="14.2" cy="85.4" r="2.7"/>
<circle fill="none" cx="11.4" cy="68.1" r="3.6"/>
<path fill="none" d="M3.4,51.7c0,0,0.1,0.1,0.2,0.2C3.5,51.8,3.5,51.8,3.4,51.7L3.4,51.7z"/>
<path fill="none" d="M16.9,53.5c0.1,0,0.3,0,0.4,0c0.3,0,0.6,0,0.8,0c0.2,0,0.3,0,0.4,0c0.2,0,0.5,0,0.7,0s0.3,0,0.4,0
	c0.2,0,0.4,0,0.7,0c0.1,0,0.3,0,0.4,0c0.2,0,0.4,0,0.6-0.1c0.1,0,0.3,0,0.4,0c0.2,0,0.4,0,0.6-0.1c0.1,0,0.2,0,0.3,0
	c0.3,0,0.6-0.1,0.8-0.1h0.1c0.2,0,0.5-0.1,0.7-0.1c0.1,0,0.2,0,0.3,0c0.1,0,0.3-0.1,0.4-0.1s0.2,0,0.3-0.1c0.1,0,0.2-0.1,0.4-0.1
	c0.1,0,0.2,0,0.2-0.1c0.1,0,0.2-0.1,0.3-0.1c0.1,0,0.1,0,0.2-0.1c0.1,0,0.2-0.1,0.3-0.1c0.1,0,0.1,0,0.2-0.1c0.1,0,0.2-0.1,0.2-0.1
	h0.1c0.1,0,0.2-0.1,0.3-0.1c-1.2-0.6-5.3-1.5-11.8-1.5c-6.3,0-10.3,0.8-11.7,1.4c1.5,0.7,5.6,1.6,11.7,1.6
	C16.1,53.6,16.5,53.5,16.9,53.5z"/>
<path fill="none" d="M19.9,90.9c-2.9-1-6.8-1.7-10.3,0.3l0.1,0.9c3.5-2.4,7.7-1.7,10.7-0.7C20.4,91.3,20.2,91,19.9,90.9z"/>
<path fill="none" d="M15.6,55.5L15.6,55.5c-1.8,0-8.3-0.1-11.8-1.3l0.9,5.4L4.8,60l0.1,0.5v0.3v0.1c1.7,0.4,6.1,0.8,11,0.8
	c4.6,0,8.9-0.4,10.7-0.8v-0.2l0.2-1.3l0.7-5.4c-3.2,1.2-8.9,1.3-11.5,1.3C15.8,55.5,15.7,55.5,15.6,55.5z"/>
<path fill="none" d="M21.7,92.7c-1.9,1.2-3.9,1.9-6,1.9c-1.8,0-3.4-0.5-4.5-1c-0.1,0.1-0.2,0.1-0.3,0.2c1.2,0.6,3.1,1.4,5.5,1.4
	c2.1,0,4.1-0.6,6-1.9l4.1-30.9c-0.2,0.1-0.5,0.1-0.7,0.2L21.7,92.7z"/>
<path fill="#020202" d="M15.6,48.7c-3.3,0-14,0.2-14,3.4l0.1,0.5l0,0l6.6,41.8l0.2,0.2c0.1,0.1,3.3,2.5,7.8,2.5
	c2.6,0,5.1-0.8,7.5-2.5l0.3-0.2l5.5-42.1c0-0.1,0-0.2,0-0.3C29.6,49,18.9,48.7,15.6,48.7z M15.6,50.6c6.6,0,10.6,0.9,11.8,1.5
	c-0.1,0-0.2,0.1-0.3,0.1H27c-0.1,0-0.2,0.1-0.2,0.1c-0.1,0-0.1,0-0.2,0.1c-0.1,0-0.2,0.1-0.3,0.1c-0.1,0-0.1,0-0.2,0.1
	c0,0-0.1,0-0.2,0s-0.2,0-0.2,0.1c-0.1,0-0.2,0.1-0.4,0.1c-0.1,0-0.2,0-0.3,0.1c-0.1,0-0.3,0.1-0.4,0.1s-0.2,0-0.3,0
	c-0.2,0-0.4,0.1-0.7,0.1h-0.1c-0.3,0-0.5,0.1-0.8,0.1c-0.1,0-0.2,0-0.3,0c-0.2,0-0.4,0-0.6,0.1c-0.1,0-0.2,0-0.4,0
	c-0.2,0-0.4,0-0.6,0.1c-0.1,0-0.3,0-0.4,0c-0.2,0-0.4,0-0.7,0c-0.1,0-0.3,0-0.4,0c-0.2,0-0.5,0-0.7,0c-0.1,0-0.3,0-0.4,0
	c-0.3,0-0.5,0-0.8,0c-0.1,0-0.3,0-0.4,0c-0.4,0-0.9,0-1.3,0c-6.1,0-10.3-0.9-11.7-1.5C5.3,51.4,9.3,50.6,15.6,50.6z M3.4,51.7
	L3.4,51.7c0,0,0.1,0.1,0.2,0.2C3.5,51.8,3.5,51.8,3.4,51.7z M22.3,93.3c-1.9,1.2-3.9,1.9-6,1.9c-2.4,0-4.3-0.8-5.5-1.4
	c0.1-0.1,0.2-0.1,0.3-0.2c2.8-1.8,6.3-1.2,8.8-0.3c0.5,0.2,1-0.1,1.2-0.6s-0.1-1-0.6-1.2c0,0,0,0-0.1,0c-3-1.1-7.2-1.7-10.7,0.7
	l-0.1-0.9L5.1,62.4c2.8,1,8.6,1.1,10.7,1.1c2.9,0,7.1-0.1,9.8-0.8c0.3-0.1,0.5-0.1,0.7-0.2L22.3,93.3z M26.8,59.5l-0.2,1.3V61
	c-1.9,0.4-6.1,0.8-10.7,0.8c-4.8,0-9.2-0.4-11-0.8v-0.1v-0.3l-0.1-0.5l-0.1-0.5l-0.9-5.4c3.5,1.2,10,1.3,11.7,1.3c0,0,0,0,0.1,0
	s0.2,0,0.4,0c2.6,0,8.3-0.2,11.5-1.3L26.8,59.5z"/>
<path fill="none" d="M16.4,83.8c-0.5-0.7-1.3-1.1-2.2-1.1c-1.5,0-2.7,1.2-2.7,2.7c0,0.9,0.5,1.7,1.1,2.2c0.5,0.7,1.3,1.1,2.2,1.1
	c1.5,0,2.7-1.2,2.7-2.7C17.5,85.1,17.1,84.3,16.4,83.8z"/>
<path fill="none" d="M12,65.2c0.8,0,1.6,0.3,2.2,0.8c-0.7-0.8-1.7-1.4-2.8-1.4c-2,0-3.6,1.6-3.6,3.6c0,1.1,0.6,2.2,1.4,2.8
	c-0.5-0.6-0.8-1.4-0.8-2.2C8.5,66.8,10.1,65.2,12,65.2z"/>
<path fill="none" d="M21.4,73.6c-0.5-0.7-1.4-1.2-2.3-1.2c-1.6,0-2.9,1.3-2.9,2.9c0,1,0.5,1.8,1.2,2.3c0.5,0.7,1.4,1.2,2.3,1.2
	c1.6,0,2.9-1.3,2.9-2.9C22.6,75,22.1,74.2,21.4,73.6z"/>
<g>
	<path fill="#E8BE49" d="M25.8,60.2c-1.5-0.4-6.1-0.9-11.2-0.9c-4,0-7.7,0.3-9.8,0.6l0.1,0.5C7,60.7,10.7,61,14.7,61
		C19.7,61.1,24.3,60.6,25.8,60.2z"/>
	<path fill="#E8BE49" d="M15.9,63.4c-2.1,0-7.9-0.1-10.7-1.1l4.5,28.9c3.4-2,7.4-1.4,10.3-0.3c0.3,0.1,0.5,0.3,0.6,0.6
		c0,0,0,0,0.1,0c0.5,0.2,0.7,0.7,0.6,1.2c-0.2,0.5-0.7,0.7-1.2,0.6c-2.5-0.9-5.9-1.5-8.8,0.3c1.2,0.5,2.7,1,4.5,1
		c2.1,0,4.1-0.6,6-1.9l3.8-30.1C23,63.3,18.8,63.4,15.9,63.4z M9.2,70.9c-0.8-0.7-1.4-1.7-1.4-2.8c0-2,1.6-3.6,3.6-3.6
		c1.1,0,2.2,0.6,2.8,1.4c0.8,0.7,1.4,1.7,1.4,2.8c0,2-1.6,3.6-3.6,3.6C10.9,72.3,9.9,71.8,9.2,70.9z M14.8,88.7
		c-0.9,0-1.7-0.5-2.2-1.1c-0.7-0.5-1.1-1.3-1.1-2.2c0-1.5,1.2-2.7,2.7-2.7c0.9,0,1.7,0.5,2.2,1.1c0.7,0.5,1.1,1.3,1.1,2.2
		C17.5,87.5,16.3,88.7,14.8,88.7z M19.7,78.9c-1,0-1.8-0.5-2.3-1.2c-0.7-0.5-1.2-1.4-1.2-2.3c0-1.6,1.3-2.9,2.9-2.9
		c1,0,1.8,0.5,2.3,1.2c0.7,0.5,1.2,1.4,1.2,2.3C22.6,77.6,21.3,78.9,19.7,78.9z"/>
</g>
<path fill="none" d="M19.7,73.1c0.6,0,1.2,0.2,1.7,0.6c-0.5-0.7-1.4-1.2-2.3-1.2c-1.6,0-2.9,1.3-2.9,2.9c0,1,0.5,1.8,1.2,2.3
	c-0.3-0.5-0.6-1.1-0.6-1.7C16.8,74.4,18.1,73.1,19.7,73.1z"/>
<path fill="none" d="M16.4,83.8c-0.5-0.7-1.3-1.1-2.2-1.1c-1.5,0-2.7,1.2-2.7,2.7c0,0.9,0.5,1.7,1.1,2.2c0.5,0.7,1.3,1.1,2.2,1.1
	c1.5,0,2.7-1.2,2.7-2.7C17.5,85.1,17.1,84.3,16.4,83.8z"/>
<circle fill="none" cx="11.4" cy="68.1" r="3.6"/>
<circle fill="none" cx="11.4" cy="68.1" r="3.6"/>
<path fill="none" d="M14.8,83.3c0.6,0,1.1,0.2,1.6,0.5c-0.5-0.7-1.3-1.1-2.2-1.1c-1.5,0-2.7,1.2-2.7,2.7c0,0.9,0.5,1.7,1.1,2.2
	c-0.3-0.4-0.5-1-0.5-1.6C12,84.5,13.3,83.3,14.8,83.3z"/>
<g>
	<path fill="#AA3617" d="M21.4,73.6c-0.5-0.3-1.1-0.6-1.7-0.6c-1.6,0-2.9,1.3-2.9,2.9c0,0.6,0.2,1.2,0.6,1.7
		c0.5,0.7,1.4,1.2,2.3,1.2c1.6,0,2.9-1.3,2.9-2.9C22.6,75,22.1,74.2,21.4,73.6z"/>
	<g>
		<path fill="#AA3617" d="M14.2,65.9c-0.6-0.5-1.4-0.8-2.2-0.8c-2,0-3.6,1.6-3.6,3.6c0,0.8,0.3,1.6,0.8,2.2c0.7,0.8,1.7,1.4,2.8,1.4
			c2,0,3.6-1.6,3.6-3.6C15.6,67.6,15.1,66.6,14.2,65.9z"/>
		<circle fill="none" cx="19.1" cy="75.3" r="2.9"/>
		<path fill="#AA3617" d="M16.4,83.8c-0.4-0.3-1-0.5-1.6-0.5c-1.5,0-2.7,1.2-2.7,2.7c0,0.6,0.2,1.1,0.5,1.6c0.5,0.7,1.3,1.1,2.2,1.1
			c1.5,0,2.7-1.2,2.7-2.7C17.5,85.1,17.1,84.3,16.4,83.8z"/>
	</g>
</g>
</svg>
