<?xml version="1.0" encoding="utf-8"?>
<!-- Generator: Adobe Illustrator 18.1.1, SVG Export Plug-In . SVG Version: 6.00 Build 0)  -->
<svg version="1.1" id="Layer_1" xmlns="http://www.w3.org/2000/svg" xmlns:xlink="http://www.w3.org/1999/xlink" x="0px" y="0px"
	 viewBox="0 0 91.7 47.2" enable-background="new 0 0 91.7 47.2" xml:space="preserve">
<g>
	<path fill="#1C1B1A" d="M37.9,32.2c-0.5,0.6-1.1,1-1.8,1.3c-0.7,0.3-1.5,0.5-2.4,0.5c-0.5,0-1-0.1-1.6-0.2
		c-0.6-0.1-1.1-0.4-1.5-0.7s-0.9-0.8-1.2-1.3c-0.3-0.6-0.5-1.3-0.5-2.1c0-0.8,0.2-1.5,0.5-2.2c0.3-0.6,0.8-1.2,1.4-1.6
		c0.6-0.4,1.3-0.8,2.1-1c0.8-0.2,1.6-0.3,2.6-0.3c0.5,0,1,0,1.5,0c0.5,0,0.8,0,1,0.1v-0.3c0-0.4-0.1-0.7-0.2-0.9
		c-0.2-0.2-0.4-0.5-0.6-0.6s-0.5-0.3-0.9-0.4c-0.3-0.1-0.7-0.1-1-0.1c-1,0-1.8,0.1-2.4,0.4c-0.6,0.2-1.2,0.5-1.6,0.8l-1.8-2.6
		c0.3-0.2,0.6-0.4,1-0.7c0.4-0.2,0.8-0.4,1.4-0.6c0.5-0.2,1.1-0.3,1.8-0.4c0.6-0.1,1.4-0.2,2.2-0.2c2.1,0,3.7,0.6,4.7,1.7
		c1,1.2,1.5,2.7,1.5,4.6v8.2h-4L37.9,32.2z M37.9,27.3c-0.1,0-0.3,0-0.6-0.1s-0.6,0-1,0c-1.2,0-2,0.2-2.5,0.5
		c-0.5,0.3-0.8,0.8-0.8,1.4c0,1.2,0.7,1.7,2.1,1.7c0.3,0,0.7-0.1,1-0.2c0.3-0.1,0.6-0.3,0.9-0.5c0.2-0.2,0.5-0.5,0.6-0.8
		c0.2-0.3,0.2-0.7,0.2-1.1V27.3z"/>
	<path fill="#1C1B1A" d="M44.3,13.5h4.3v7c0.4-0.4,0.9-0.8,1.6-1c0.7-0.2,1.4-0.4,2.1-0.4c1,0,1.9,0.2,2.7,0.6
		c0.8,0.4,1.4,0.9,2,1.5c0.5,0.7,0.9,1.4,1.2,2.2c0.3,0.9,0.4,1.8,0.4,2.7c0,1.1-0.2,2.2-0.6,3.2c-0.4,1-0.9,1.8-1.6,2.5
		c-0.7,0.7-1.6,1.2-2.6,1.6c-1,0.4-2.2,0.6-3.5,0.6c-1.2,0-2.3-0.1-3.4-0.3c-1.1-0.2-2-0.5-2.7-0.7V13.5z M48.6,30.1
		c0.2,0.1,0.5,0.2,0.8,0.2c0.3,0.1,0.7,0.1,1.2,0.1c1.1,0,2-0.4,2.7-1.1c0.6-0.7,0.9-1.7,0.9-2.9c0-0.4-0.1-0.9-0.2-1.3
		c-0.1-0.4-0.3-0.8-0.5-1.1c-0.2-0.3-0.5-0.6-0.9-0.8s-0.8-0.3-1.3-0.3c-1,0-1.7,0.3-2.1,0.8s-0.7,1.2-0.7,2.1V30.1z"/>
	<path fill="#1C1B1A" d="M62.8,35.4c0.6,0.3,1.2,0.6,1.8,0.8c0.6,0.2,1.3,0.3,2.1,0.3c1,0,1.8-0.3,2.3-0.8c0.6-0.5,0.8-1.3,0.8-2.3
		v-1c-0.9,0.8-2.1,1.2-3.6,1.2c-1,0-1.9-0.2-2.7-0.5c-0.8-0.3-1.5-0.8-2-1.4c-0.5-0.6-1-1.3-1.2-2.1c-0.3-0.8-0.4-1.7-0.4-2.7
		c0-1.1,0.2-2.2,0.6-3.1c0.4-0.9,0.9-1.7,1.7-2.4c0.7-0.7,1.6-1.2,2.5-1.5c1-0.4,2.1-0.5,3.3-0.5c1.2,0,2.3,0.1,3.3,0.3
		c1,0.2,2,0.5,2.8,0.8v12.9c0,2.3-0.6,4-1.9,5.1c-1.3,1.1-3,1.7-5.2,1.7c-1.3,0-2.4-0.1-3.3-0.4c-0.9-0.2-1.8-0.6-2.6-1.1L62.8,35.4
		z M69.9,23.1c-0.3-0.1-0.6-0.2-0.8-0.2c-0.3,0-0.7-0.1-1.1-0.1c-0.6,0-1.2,0.1-1.6,0.3s-0.8,0.5-1.2,0.8c-0.3,0.3-0.5,0.8-0.7,1.2
		c-0.2,0.5-0.2,1-0.2,1.5c0,1,0.2,1.8,0.7,2.4s1.2,0.9,2.1,0.9c0.9,0,1.6-0.2,2-0.6c0.5-0.4,0.7-1.1,0.7-2V23.1z"/>
	<path fill="#1C1B1A" d="M76.5,13.5h4.3v7c0.4-0.4,0.9-0.8,1.6-1c0.7-0.2,1.4-0.4,2.1-0.4c1,0,1.9,0.2,2.7,0.6
		c0.8,0.4,1.4,0.9,2,1.5c0.5,0.7,0.9,1.4,1.2,2.2c0.3,0.9,0.4,1.8,0.4,2.7c0,1.1-0.2,2.2-0.6,3.2c-0.4,1-0.9,1.8-1.6,2.5
		c-0.7,0.7-1.6,1.2-2.6,1.6c-1,0.4-2.2,0.6-3.5,0.6c-1.2,0-2.3-0.1-3.4-0.3c-1.1-0.2-2-0.5-2.7-0.7V13.5z M80.8,30.1
		c0.2,0.1,0.5,0.2,0.8,0.2c0.3,0.1,0.7,0.1,1.2,0.1c1.1,0,2-0.4,2.7-1.1c0.6-0.7,0.9-1.7,0.9-2.9c0-0.4-0.1-0.9-0.2-1.3
		c-0.1-0.4-0.3-0.8-0.5-1.1c-0.2-0.3-0.5-0.6-0.9-0.8s-0.8-0.3-1.3-0.3c-1,0-1.7,0.3-2.1,0.8s-0.7,1.2-0.7,2.1V30.1z"/>
</g>
<path fill="none" d="M3,4.2C2.9,4.1,2.8,4.1,2.7,4C2.8,4.1,2.9,4.1,3,4.2z"/>
<path fill="none" d="M18.5,41.1c-0.1-0.3-0.3-0.5-0.5-0.6c-2.7-1-6.4-1.6-9.6,0.3l0.1,0.9C11.8,39.5,15.7,40.1,18.5,41.1z"/>
<path fill="none" d="M15.6,28.2c-0.3-0.4-0.5-1-0.5-1.6c0-1.5,1.2-2.7,2.7-2.7c0.6,0,1.1,0.2,1.6,0.5c-0.5-0.7-1.3-1.1-2.2-1.1
	c-1.5,0-2.7,1.2-2.7,2.7C14.5,26.9,14.9,27.7,15.6,28.2z"/>
<path fill="none" d="M19.7,42.2c-0.3,0.2-0.6,0.4-1,0.5c0,0,0,0,0,0c-1.5,0.8-3,1.2-4.6,1.2c-1.7,0-3.2-0.4-4.2-0.9
	c-0.1,0.1-0.2,0.1-0.3,0.2c1.1,0.6,2.9,1.3,5.1,1.3c2,0,3.9-0.6,5.7-1.8L24,13.9c-0.2,0.1-0.5,0.1-0.7,0.2L19.7,42.2z"/>
<path fill="none" d="M3.8,11.6c2-0.3,5.5-0.6,9.2-0.6c4.8,0,9.1,0.4,10.5,0.8c-1.4,0.4-5.7,0.8-10.5,0.8c-3.7,0-7.1-0.3-9.1-0.6
	l0.1,0.4l0,0c1.6,0.4,5.7,0.8,10.3,0.8c4.3,0,8.3-0.4,10-0.7l0,0l0.2-1.4l0.7-5c-3,1.1-8.3,1.2-10.7,1.3c-0.1,0-0.3,0-0.4,0
	c0,0,0,0-0.1,0c-1.6,0-7.7-0.1-11-1.2l0.8,5.1L3.8,11.6z"/>
<path fill="none" d="M2.6,3.9c0,0,0.1,0.1,0.1,0.1C2.6,3.9,2.6,3.9,2.6,3.9L2.6,3.9z"/>
<path fill="none" d="M3,4.2C4.4,4.8,8.3,5.6,14,5.6c0.4,0,0.8,0,1.2,0c0.1,0,0.3,0,0.4,0c0.3,0,0.5,0,0.8,0c0.1,0,0.3,0,0.4,0
	c0.2,0,0.4,0,0.7,0c0.1,0,0.3,0,0.4,0c0.2,0,0.4,0,0.6,0c0.1,0,0.3,0,0.4,0c0.2,0,0.4,0,0.6-0.1c0.1,0,0.2,0,0.3,0
	c0.2,0,0.4,0,0.6-0.1c0.1,0,0.2,0,0.3,0c0.3,0,0.5-0.1,0.8-0.1c0,0,0.1,0,0.1,0c0.2,0,0.4-0.1,0.6-0.1c0.1,0,0.2,0,0.2,0
	c0.1,0,0.3-0.1,0.4-0.1c0.1,0,0.2,0,0.2-0.1c0.1,0,0.2,0,0.3-0.1c0.1,0,0.2,0,0.2-0.1c0.1,0,0.2,0,0.3-0.1c0.1,0,0.1,0,0.2-0.1
	c0.1,0,0.2,0,0.2-0.1c0.1,0,0.1,0,0.2-0.1c0.1,0,0.1-0.1,0.2-0.1c0,0,0.1,0,0.1,0c0.1,0,0.2-0.1,0.3-0.1C23.9,3.7,20.1,2.9,14,2.9
	C8,2.9,4.3,3.6,3,4.2z"/>
<path fill="none" d="M10.6,16.4c0.8,0,1.5,0.3,2,0.7c-0.6-0.8-1.6-1.3-2.6-1.3c-1.8,0-3.3,1.5-3.3,3.3c0,1.1,0.5,2,1.3,2.6
	c-0.4-0.6-0.7-1.3-0.7-2C7.3,17.9,8.8,16.4,10.6,16.4z"/>
<path fill="none" d="M13.2,33.4c0.6,0,1.1,0.2,1.5,0.5c-0.5-0.6-1.2-1.1-2.1-1.1c-1.4,0-2.6,1.1-2.6,2.6c0,0.9,0.4,1.6,1.1,2.1
	c-0.3-0.4-0.5-0.9-0.5-1.5C10.6,34.5,11.8,33.4,13.2,33.4z"/>
<path fill="#040404" d="M25,4.2L25,4.2c-0.1,0-0.2,0.1-0.3,0.1C24.9,4.3,25,4.3,25,4.2z"/>
<path fill="#040404" d="M25.8,12.4c0-0.3-0.2-0.6-0.5-0.9L25,13.5C25.5,13.2,25.8,12.8,25.8,12.4z"/>
<path fill="#E8BE49" d="M18,42.8c-2.4-0.8-5.6-1.4-8.2,0.3c1.1,0.5,2.6,0.9,4.2,0.9c1.6,0,3.2-0.4,4.6-1.2
	C18.4,42.9,18.2,42.9,18,42.8z"/>
<path fill="#040404" d="M2.9,4.2C4,4.8,7.8,5.6,14,5.6C8.3,5.6,4.4,4.8,3,4.2C3,4.2,2.9,4.2,2.9,4.2z"/>
<path fill="#040404" d="M8.4,40.9L4.2,13.8c-0.4-0.1-0.7-0.3-1-0.5l4.5,29c0.3-0.2,0.5-0.4,0.8-0.6L8.4,40.9z"/>
<path fill="#040404" d="M3.7,11.2L2.9,6.1C2.6,6,2.3,5.9,2,5.7l0.9,6C3.1,11.6,3.4,11.4,3.7,11.2z"/>
<path fill="#040404" d="M20.2,42.8c-1.8,1.2-3.7,1.8-5.7,1.8c-2.2,0-4-0.7-5.1-1.3c-0.3,0.2-0.5,0.4-0.8,0.6c1.9,1.1,7,3.2,12.4-0.5
	L25,13.5c-0.3,0.2-0.6,0.3-0.9,0.4L20.2,42.8z"/>
<path fill="#040404" d="M25.1,6.1C22,7.2,16.3,7.4,14.3,7.4C16.7,7.4,22.1,7.2,25.1,6.1L25.1,6.1z"/>
<path fill="#040404" d="M2.9,6l0,0.1c3.3,1.1,9.3,1.2,11,1.2C13.1,7.4,6.4,7.3,2.9,6z"/>
<path fill="#040404" d="M2.6,12.4L2.6,12.4l0.1,0.4C2.8,13,3,13.2,3.2,13.4l-0.3-1.6C2.7,12,2.6,12.2,2.6,12.4z"/>
<g>
	<path fill="none" d="M25.8,12.4c0-0.3-0.2-0.6-0.5-0.9L25,13.5C25.5,13.2,25.8,12.8,25.8,12.4z"/>
	<path fill="none" d="M2.6,12.4L2.6,12.4l0.1,0.4C2.8,13,3,13.2,3.2,13.4l-0.3-1.6C2.7,12,2.6,12.2,2.6,12.4z"/>
	<path fill="none" d="M3.7,11.2l0.1,0.4l0.1,0.5l0.1,0.4l0,0l0.1,0.9l0.1,0.4c-0.4-0.1-0.7-0.3-1-0.5l4.5,29
		c-0.1,0.1-0.1,0.1-0.2,0.2c-0.4,0.3-0.4,0.9-0.1,1.3c0.2,0.2,0.4,0.3,0.7,0.3c0.2,0,0.4-0.1,0.6-0.2c0,0,0,0,0,0
		c1.9,1.1,7,3.2,12.4-0.5L25,13.5c-0.3,0.2-0.6,0.3-0.9,0.4l0.2-1.3l0,0l0.2-1.4l0.7-5l0,0C22,7.2,16.3,7.4,14.3,7.4
		c-0.1,0-0.3,0-0.4,0c0,0,0,0-0.1,0c-0.8,0-7.5-0.1-11-1.3l0,0.1C2.6,6,2.3,5.9,2,5.7l0.9,6C3.1,11.6,3.4,11.4,3.7,11.2z"/>
	<path fill="#040404" d="M24.2,12.5L24,13.9c0.4-0.1,0.7-0.3,0.9-0.4l0.2-1.9c-0.2-0.2-0.5-0.3-0.8-0.4L24.2,12.5L24.2,12.5z"/>
	<path fill="#040404" d="M4.1,13.4l-0.1-0.9l0,0l-0.1-0.4l-0.1-0.5l-0.1-0.4c-0.3,0.2-0.6,0.3-0.8,0.5l0.3,1.6
		c0.3,0.2,0.6,0.3,1,0.5L4.1,13.4z"/>
	<path fill="#020202" d="M26,5.7l0.2-1.4c0,1.2-5.5,2.3-12.2,2.3C7.5,6.5,2.2,5.4,1.8,4.2L2,5.7c0.3,0.2,0.6,0.3,1,0.4l0-0.1
		c3.5,1.3,10.2,1.3,11,1.3c0,0,0,0,0.1,0c0.1,0,0.2,0,0.4,0c2,0,7.7-0.2,10.7-1.3l0,0l-0.7,5c0.3,0.1,0.6,0.3,0.8,0.4
		c0.3,0.2,0.5,0.5,0.5,0.9c0,0.4-0.3,0.8-0.8,1l-3.9,29.9c-5.4,3.8-10.4,1.6-12.4,0.5c0,0,0,0,0,0c-0.2,0.2-0.4,0.2-0.6,0.2
		c-0.2,0-0.5-0.1-0.7-0.3c-0.3-0.4-0.3-0.9,0.1-1.3c0.1-0.1,0.1-0.1,0.2-0.2l-4.5-29C3,13.2,2.8,13,2.7,12.9l-0.1-0.3v-0.1
		c0-0.3,0.1-0.5,0.3-0.7L2,5.7c-0.5-0.3-0.9-0.6-1.1-1l6.1,39.1L7.3,44c0.1,0.1,3.1,2.3,7.3,2.3c2.5,0,4.8-0.8,7-2.3l0.3-0.2
		l5.2-39.3c0-0.1,0-0.2,0-0.3C27.1,4.8,26.7,5.3,26,5.7z"/>
</g>
<path fill="#020202" d="M2.6,3.9C2.6,3.9,2.6,3.9,2.6,3.9L2.6,3.9c0,0,0,0,0.1,0c0,0,0,0,0,0C2.8,4.1,2.9,4.1,3,4.2
	C4.3,3.6,8,2.9,14,2.9c6.1,0,9.9,0.8,11.1,1.4c0.2-0.1,0.3-0.2,0.3-0.2c0,0,0,0,0,0.1l1.8,0.1c0-2.9-10-3.1-13.1-3.1
	c-3.1,0-13.1,0.2-13.1,3.1l0.1,0.4c0,0,0,0,0,0L0.9,4.4L2.6,3.9z"/>
<g>
	<path fill="#040404" d="M25.3,4.1c0-0.1,0-0.1,0-0.1c-0.1,0.1-0.2,0.1-0.3,0.2h0c-0.1,0-0.2,0.1-0.3,0.1c0,0-0.1,0-0.1,0
		c-0.1,0-0.1,0.1-0.2,0.1c-0.1,0-0.1,0-0.2,0.1c-0.1,0-0.2,0-0.2,0.1c-0.1,0-0.1,0-0.2,0.1c-0.1,0-0.2,0-0.3,0.1
		c-0.1,0-0.1,0-0.2,0.1c-0.1,0-0.2,0-0.3,0.1c-0.1,0-0.2,0-0.2,0.1c-0.1,0-0.3,0.1-0.4,0.1c-0.1,0-0.2,0-0.2,0
		c-0.2,0-0.4,0.1-0.6,0.1c0,0-0.1,0-0.1,0c-0.2,0-0.5,0.1-0.8,0.1c-0.1,0-0.2,0-0.3,0c-0.2,0-0.4,0-0.6,0.1c-0.1,0-0.2,0-0.3,0
		c-0.2,0-0.4,0-0.6,0.1c-0.1,0-0.3,0-0.4,0c-0.2,0-0.4,0-0.6,0c-0.1,0-0.3,0-0.4,0c-0.2,0-0.4,0-0.7,0c-0.1,0-0.3,0-0.4,0
		c-0.2,0-0.5,0-0.8,0c-0.1,0-0.3,0-0.4,0c-0.4,0-0.8,0-1.2,0C7.8,5.6,4,4.8,2.9,4.2c0,0,0.1,0,0.1-0.1C2.9,4.1,2.8,4.1,2.7,4
		c0,0,0,0,0,0c-0.1,0-0.1-0.1-0.1-0.1c0,0,0,0,0,0.1L0.9,4.4l0.1,0.3c0.2,0.4,0.5,0.7,1.1,1L1.8,4.2C2.2,5.4,7.5,6.5,14,6.5
		c6.8,0,12.2-1,12.2-2.3L26,5.7c0.7-0.4,1.1-0.9,1.1-1.4L25.3,4.1z"/>
	<path fill="#020202" d="M3.9,12.5l0.1,0.9l0.1,0.4c2.7,0.9,8.1,1,10,1c2.7,0,6.7-0.1,9.2-0.8c0.2-0.1,0.5-0.1,0.7-0.2l0.2-1.3
		c-1.7,0.4-5.7,0.7-10,0.7C9.7,13.2,5.5,12.9,3.9,12.5z"/>
</g>
<path fill="#020202" d="M18,42.8c0.2,0.1,0.5,0.1,0.7,0c0,0,0,0,0,0c0.2-0.1,0.4-0.3,0.4-0.5c0.2-0.5-0.1-1-0.5-1.1c0,0,0,0-0.1,0
	c-2.8-1-6.7-1.6-10,0.6l0.2,1.1c0.2,0.1,0.4,0.3,0.8,0.4c0.1-0.1,0.2-0.1,0.3-0.2C12.4,41.4,15.6,42,18,42.8z"/>
<path fill="#020202" d="M7.7,42.4c-0.1,0.1-0.1,0.1-0.2,0.2c-0.4,0.3-0.4,0.9-0.1,1.3c0.2,0.2,0.4,0.3,0.7,0.3
	c0.2,0,0.4-0.1,0.6-0.2c0,0,0,0,0,0c-0.5-0.3-0.8-0.5-0.8-0.5L7.7,42.4z"/>
<path fill="#020202" d="M8.7,42.8l-0.2-1.1c-0.3,0.2-0.5,0.4-0.8,0.6l0.1,1c0,0,0.3,0.2,0.8,0.5c0.2-0.2,0.5-0.4,0.8-0.6
	C9.1,43.1,8.9,42.9,8.7,42.8z"/>
<path fill="none" d="M10.6,16.4c0.8,0,1.5,0.3,2,0.7c-0.6-0.8-1.6-1.3-2.6-1.3c-1.8,0-3.3,1.5-3.3,3.3c0,1.1,0.5,2,1.3,2.6
	c-0.4-0.6-0.7-1.3-0.7-2C7.3,17.9,8.8,16.4,10.6,16.4z"/>
<path fill="none" d="M15.6,28.2c-0.3-0.4-0.5-1-0.5-1.6c0-1.5,1.2-2.7,2.7-2.7c0.6,0,1.1,0.2,1.6,0.5c-0.5-0.7-1.3-1.1-2.2-1.1
	c-1.5,0-2.7,1.2-2.7,2.7C14.5,26.9,14.9,27.7,15.6,28.2z"/>
<path fill="none" d="M10,35.4c0,0.9,0.4,1.6,1.1,2.1c-0.3-0.4-0.5-0.9-0.5-1.5c0-1.4,1.1-2.6,2.6-2.6c0.6,0,1.1,0.2,1.5,0.5
	c-0.5-0.6-1.2-1.1-2.1-1.1C11.2,32.8,10,33.9,10,35.4z"/>
<path fill="#E8BE49" d="M13,11c-3.8,0-7.2,0.3-9.2,0.6l0.1,0.5c2,0.3,5.4,0.6,9.1,0.6c4.8,0,9.1-0.4,10.5-0.8
	C22.1,11.5,17.8,11,13,11z"/>
<path fill="#E8BE49" d="M4.2,13.8l4.2,27.1c3.2-1.9,6.9-1.3,9.6-0.3c0.3,0.1,0.5,0.3,0.5,0.6c0,0,0,0,0.1,0c0.5,0.2,0.7,0.7,0.5,1.1
	c-0.1,0.2-0.2,0.4-0.4,0.5c0.3-0.2,0.7-0.3,1-0.5l3.7-28.2c-2.5,0.6-6.4,0.8-9.2,0.8C12.2,14.8,6.8,14.7,4.2,13.8z M8,21.8
	c-0.8-0.6-1.3-1.6-1.3-2.6c0-1.8,1.5-3.3,3.3-3.3c1.1,0,2,0.5,2.6,1.3c0.8,0.6,1.3,1.6,1.3,2.6c0,1.8-1.5,3.3-3.3,3.3
	C9.6,23.1,8.6,22.6,8,21.8z M17.2,23.3c0.9,0,1.7,0.4,2.2,1.1c0.7,0.5,1.1,1.3,1.1,2.2c0,1.5-1.2,2.7-2.7,2.7
	c-0.9,0-1.7-0.4-2.2-1.1c-0.7-0.5-1.1-1.3-1.1-2.2C14.5,24.5,15.7,23.3,17.2,23.3z M14.7,33.9c0.6,0.5,1.1,1.2,1.1,2.1
	c0,1.4-1.1,2.6-2.6,2.6c-0.9,0-1.6-0.4-2.1-1.1C10.5,37,10,36.2,10,35.4c0-1.4,1.1-2.6,2.6-2.6C13.5,32.8,14.2,33.2,14.7,33.9z"/>
<path fill="#AA3617" d="M14,19.8c0-1.1-0.5-2-1.3-2.6c-0.6-0.4-1.3-0.7-2-0.7c-1.8,0-3.3,1.5-3.3,3.3c0,0.8,0.3,1.5,0.7,2
	c0.6,0.8,1.6,1.3,2.6,1.3C12.5,23.1,14,21.6,14,19.8z"/>
<path fill="#AA3617" d="M15.1,26.6c0,0.6,0.2,1.1,0.5,1.6c0.5,0.7,1.3,1.1,2.2,1.1c1.5,0,2.7-1.2,2.7-2.7c0-0.9-0.4-1.7-1.1-2.2
	c-0.4-0.3-1-0.5-1.6-0.5C16.3,23.9,15.1,25.1,15.1,26.6z"/>
<path fill="#AA3617" d="M10.6,35.9c0,0.6,0.2,1.1,0.5,1.5c0.5,0.6,1.2,1.1,2.1,1.1c1.4,0,2.6-1.1,2.6-2.6c0-0.9-0.4-1.6-1.1-2.1
	c-0.4-0.3-0.9-0.5-1.5-0.5C11.8,33.4,10.6,34.5,10.6,35.9z"/>
</svg>
